<svg width="47" height="47" viewBox="0 0 47 47" fill="none" xmlns="http://www.w3.org/2000/svg">
<circle cx="23.5" cy="23.5" r="23.5" fill="#FB7B7B" fill-opacity="0.24"/>
<g clip-path="url(#clip0_989_145)">
<path d="M14.5429 30.0552C14.7086 31.4091 15.5383 32.5798 16.6995 33.1002C17.2684 33.3598 17.8849 33.4387 18.5014 33.3598C19.0936 33.2822 19.6868 33.0735 20.3022 32.6841C21.1551 32.1625 22.0092 31.3569 23.0046 30.1596C21.4402 28.0511 20.4923 26.1259 20.1365 24.4081C19.9708 23.6013 19.9465 22.8722 20.0183 22.1953C20.1133 21.5451 20.3265 20.9458 20.658 20.4253C21.3927 19.2547 22.6256 18.5777 24 18.5777C25.3744 18.5777 26.6074 19.2801 27.342 20.4253C27.6735 20.9458 27.8867 21.5451 27.9817 22.1953C28.0767 22.8722 28.0524 23.6268 27.8635 24.4081C27.5078 26.1259 26.5366 28.0778 24.9954 30.1851C25.9677 31.3824 26.8438 32.1892 27.6978 32.7096C28.3143 33.1002 28.9065 33.3089 29.4986 33.3865C30.1096 33.4617 30.7272 33.372 31.2995 33.1269C32.4606 32.6065 33.2903 31.4346 33.456 30.0819C33.5268 29.4317 33.4792 28.7814 33.2428 28.0524C33.1721 27.7915 33.0528 27.5319 32.9346 27.2201C32.7689 26.804 32.5788 26.3612 32.3899 25.9184L32.3656 25.8663C30.7305 21.9879 28.9761 18.0318 27.1509 14.1801L27.0802 14.0236C26.8902 13.6342 26.7013 13.2169 26.5112 12.8262C26.3212 12.4101 26.108 12.0195 25.8472 11.681C25.349 11.0563 24.6861 10.7178 23.9514 10.7178C23.2167 10.7178 22.5527 11.0563 22.0556 11.681C21.7948 12.0195 21.5816 12.4101 21.3916 12.8262C21.2015 13.2169 21.0126 13.633 20.8226 14.0224L20.7508 14.1789C18.9499 18.0561 17.1955 22.0121 15.5604 25.8905V25.916C15.3704 26.3321 15.2047 26.8016 15.0157 27.2177C14.8975 27.5307 14.7782 27.7903 14.7075 28.0499C14.5186 28.7281 14.4479 29.3783 14.5429 30.0552V30.0552ZM24 28.8312C25.2794 27.0612 26.1091 25.3956 26.3941 23.9908C26.5123 23.3915 26.5366 22.871 26.4648 22.4028C26.4173 21.9867 26.2748 21.6215 26.0859 21.3097C25.6351 20.6073 24.8772 20.1645 24 20.1645C23.1228 20.1645 22.3406 20.5818 21.9141 21.3097C21.7241 21.6227 21.5827 21.9867 21.5352 22.4028C21.4645 22.871 21.4877 23.4182 21.6059 23.9908C21.8898 25.3701 22.7195 27.0357 24 28.8312V28.8312ZM13.3099 27.4785C13.4281 27.1668 13.5474 26.8283 13.6657 26.542C13.8557 26.0737 14.0446 25.6309 14.2114 25.2148L14.2346 25.1893C15.8697 21.2855 17.6242 17.3294 19.4725 13.4255L19.5432 13.269C19.7333 12.8784 19.9222 12.4623 20.1122 12.0462C20.3497 11.5779 20.5862 11.083 20.9651 10.6147C21.7241 9.5726 22.8146 9 23.9757 9C25.1612 9 26.2273 9.5726 27.0106 10.5613C27.3664 11.0296 27.6271 11.5245 27.8635 11.9928C28.0535 12.4089 28.2425 12.825 28.4325 13.2157L28.5032 13.3709C30.3283 17.2748 32.106 21.2309 33.7411 25.1348L33.7643 25.1869C33.93 25.603 34.12 26.0458 34.3101 26.5141C34.4371 26.8222 34.5553 27.1352 34.6658 27.4506C34.974 28.4139 35.0691 29.3249 34.9508 30.2615C34.6901 32.2134 33.5047 33.8536 31.8695 34.5815C31.2531 34.8678 30.6134 34.9976 29.9494 34.9976C29.7594 34.9976 29.5229 34.9721 29.3329 34.9454C28.5507 34.8411 27.7453 34.556 26.9631 34.061C25.9909 33.463 25.0673 32.604 24.0243 31.3545C22.9814 32.604 22.0335 33.463 21.0855 34.061C20.3033 34.556 19.4979 34.8411 18.7157 34.9454C18.5257 34.9721 18.2893 34.9976 18.0992 34.9976C17.4353 34.9976 16.7724 34.8678 16.1791 34.5815C14.5197 33.8524 13.3585 32.1867 13.0978 30.2615C12.9078 29.3516 13.0028 28.4418 13.3099 27.4785V27.4785Z" fill="#E0565B"/>
</g>
<defs>
<clipPath id="clip0_989_145">
<rect width="22" height="26" fill="white" transform="matrix(-1 0 0 1 35 9)"/>
</clipPath>
</defs>
</svg>
