<svg width="24" height="26" viewBox="0 0 24 26" fill="none" xmlns="http://www.w3.org/2000/svg">
<g clip-path="url(#clip0_917_464)">
<path d="M17.8321 21.505C17.8321 22.8638 14.8161 23.9652 11.0957 23.9652C7.37535 23.9652 4.35938 22.8638 4.35938 21.505C4.35938 20.1462 7.37521 19.0444 11.0957 19.0444C14.8163 19.0444 17.8321 20.1476 17.8321 21.505Z" fill="#A0DCF2"/>
<path d="M17.8321 21.505C17.8321 22.8638 14.8161 23.9652 11.0957 23.9652C7.37535 23.9652 4.35938 22.8638 4.35938 21.505C4.35938 20.1462 7.37521 19.0444 11.0957 19.0444C14.8163 19.0444 17.8321 20.1476 17.8321 21.505Z" fill="#82BDE7"/>
<path d="M3.40226 14.2706L3.20783 14.9776C3.20783 14.9776 3.15724 15.2332 3.38794 15.2784C3.62881 15.2736 3.60914 15.0382 3.59228 14.962L3.40226 14.2707V14.2706Z" fill="#A0DCF2"/>
<path d="M22.985 11.3063L23.0028 11.2144C21.0266 10.802 18.9987 10.7978 17.7705 10.851C17.9721 10.0933 18.0328 9.22134 18.0328 8.24897C18.0328 6.85443 17.5307 5.73878 16.7157 4.88985C16.8582 4.41016 17.0485 3.3445 16.5256 1.98055C16.5256 1.98055 15.6023 1.675 13.518 3.13167C12.7009 2.91857 11.8313 2.81327 10.9605 2.81327C10.0023 2.81327 9.03415 2.94063 8.13115 3.19912C5.97857 1.66648 5.02847 1.98041 5.02847 1.98041C4.40809 3.60033 4.79161 4.79712 4.90803 5.09486C4.179 5.91599 3.73392 6.96392 3.73392 8.24883C3.73392 9.21897 3.8399 10.0891 4.09844 10.8455C2.86103 10.7985 0.906896 10.8166 -1 11.2141L-0.982336 11.306C0.934596 10.9059 2.90077 10.892 4.12948 10.9406C4.18636 11.097 4.24992 11.2478 4.32084 11.3958C3.10471 11.4367 1.0284 11.5983 -0.961595 12.1843L-0.93724 12.2743C1.06841 11.684 3.16292 11.5264 4.36728 11.4881C5.0939 12.9014 6.52642 13.8144 9.07497 14.0996C8.71312 14.3532 8.34432 14.7844 8.19445 15.5142C7.7016 15.76 6.14129 16.3607 5.20497 14.6805C5.20497 14.6805 4.68094 13.6806 3.67785 13.6024C3.67785 13.6024 2.705 13.5884 3.61054 14.235C3.61054 14.235 4.26183 14.5552 4.71092 15.7572C4.71092 15.7572 5.29704 17.8093 8.12486 17.1509V19.2708C8.12486 19.2708 8.06505 20.0207 7.40627 20.2704C7.40627 20.2704 7.01712 20.5516 7.43624 20.7075C7.43624 20.7075 9.26218 20.8639 9.26218 19.3019V16.9904C9.26218 16.9904 9.18992 16.0736 9.62121 15.7551V19.5545C9.62121 19.5545 9.5915 20.4604 9.14241 20.8041C9.14241 20.8041 8.84306 21.3662 9.50158 21.2102C9.50158 21.2102 10.7587 21.0228 10.8186 19.4921L10.8472 15.6499H11.1493L11.178 19.4921C11.2379 21.0226 12.4951 21.2102 12.4951 21.2102C13.1534 21.3662 12.8541 20.8041 12.8541 20.8041C12.4051 20.4606 12.3753 19.5545 12.3753 19.5545V15.7906C12.8066 16.1397 12.7345 16.9932 12.7345 16.9932V19.3047C12.7345 20.8665 14.5603 20.7103 14.5603 20.7103C14.9791 20.5543 14.5904 20.2732 14.5904 20.2732C13.9317 20.0218 13.8718 19.2735 13.8718 19.2735V16.2436C13.8718 15.0622 13.395 14.4362 12.9288 14.106C15.6453 13.8247 16.9508 12.9089 17.5519 11.4859C18.7423 11.52 20.8847 11.6713 22.934 12.2749L22.9584 12.1848C20.9207 11.585 18.7926 11.4299 17.59 11.3933C17.647 11.2495 17.6967 11.1 17.7408 10.9464C18.9592 10.8906 20.9963 10.8927 22.9803 11.3067" fill="#292929"/>
<path d="M15.3747 8.18197C15.9602 8.7354 16.3026 9.4039 16.3026 10.1238C16.3026 13.4858 13.9009 13.577 10.9386 13.577C7.97624 13.577 5.57422 13.113 5.57422 10.1252C5.57422 9.4099 5.91197 8.74573 6.4902 8.19454C7.45449 7.27593 9.08679 7.76233 10.9383 7.76233C12.7826 7.76233 14.4087 7.27104 15.3743 8.18337" fill="#F5CDB5"/>
<path d="M9.15421 10.2965C9.15421 11.2224 8.65454 11.9731 8.03818 11.9731C7.42182 11.9731 6.92188 11.2225 6.92188 10.2965C6.92188 9.37051 7.42182 8.62018 8.03818 8.62018C8.65454 8.62018 9.15421 9.37051 9.15421 10.2965Z" fill="white"/>
<path d="M8.79664 10.3176C8.79664 10.9348 8.4621 11.4351 8.05262 11.4351C7.64314 11.4351 7.30859 10.9348 7.30859 10.3176C7.30859 9.70034 7.64153 9.19956 8.05262 9.19956C8.4637 9.19956 8.79664 9.70006 8.79664 10.3176Z" fill="#B1645A"/>
<path d="M15.1425 10.2965C15.1425 11.2224 14.6428 11.9731 14.0262 11.9731C13.4096 11.9731 12.9102 11.2225 12.9102 10.2965C12.9102 9.37051 13.41 8.62018 14.0262 8.62018C14.6424 8.62018 15.1425 9.37051 15.1425 10.2965Z" fill="white"/>
<path d="M14.7823 10.3176C14.7823 10.9348 14.4478 11.4351 14.0383 11.4351C13.6288 11.4351 13.2943 10.9348 13.2943 10.3176C13.2943 9.70034 13.6288 9.19955 14.0383 9.19955C14.4478 9.19955 14.7823 9.70006 14.7823 10.3176ZM11.2314 11.7839C11.2314 11.9448 11.1064 12.0752 10.9522 12.0752C10.7981 12.0752 10.6731 11.9448 10.6731 11.7839C10.6731 11.623 10.7979 11.4926 10.9522 11.4926C11.1065 11.4926 11.2314 11.623 11.2314 11.7839ZM10.302 12.5205C10.2981 12.5089 10.2964 12.4967 10.297 12.4844C10.2976 12.4721 10.3006 12.46 10.3056 12.4489C10.3107 12.4378 10.3179 12.4279 10.3266 12.4197C10.3354 12.4114 10.3456 12.4051 10.3567 12.401C10.3678 12.3969 10.3796 12.3951 10.3914 12.3958C10.4032 12.3964 10.4147 12.3995 10.4253 12.4048C10.436 12.4101 10.4455 12.4175 10.4534 12.4267C10.4613 12.4358 10.4674 12.4465 10.4713 12.4581C10.543 12.6697 10.7353 12.8119 10.9499 12.8119C11.1646 12.8119 11.3568 12.6697 11.4287 12.4581C11.4327 12.4465 11.4387 12.4359 11.4466 12.4267C11.4545 12.4176 11.464 12.4102 11.4747 12.4049C11.4853 12.3996 11.4968 12.3965 11.5086 12.3958C11.5203 12.3952 11.5321 12.397 11.5432 12.4011C11.5543 12.4052 11.5646 12.4115 11.5733 12.4197C11.5821 12.428 11.5892 12.4379 11.5943 12.449C11.5993 12.4601 11.6023 12.4721 11.6029 12.4844C11.6035 12.4967 11.6018 12.509 11.5979 12.5205C11.5497 12.6595 11.4616 12.7795 11.3456 12.8644C11.2297 12.9492 11.0915 12.9948 10.9499 12.9948C10.8083 12.9948 10.6702 12.9492 10.5542 12.8644C10.4383 12.7795 10.3502 12.6595 10.302 12.5205Z" fill="#B1645A"/>
<path d="M4.11584 13.8538C4.11584 13.9315 4.02859 13.9942 3.92113 13.9942C3.81368 13.9942 3.72656 13.9314 3.72656 13.8538C3.72656 13.7761 3.81354 13.713 3.92113 13.713C4.02872 13.713 4.11584 13.7758 4.11584 13.8538ZM4.65485 14.1659C4.65485 14.2437 4.5676 14.3066 4.46015 14.3066C4.35269 14.3066 4.26558 14.2438 4.26558 14.1659C4.26558 14.088 4.35256 14.0254 4.46015 14.0254C4.56774 14.0254 4.65485 14.0882 4.65485 14.1659ZM4.98431 14.5709C4.98431 14.6484 4.89733 14.7113 4.78961 14.7113C4.68188 14.7113 4.59517 14.6485 4.59517 14.5709C4.59517 14.4932 4.68215 14.4301 4.78961 14.4301C4.89706 14.4301 4.98431 14.4929 4.98431 14.5709ZM5.28339 15.0397C5.28339 15.1174 5.19641 15.1804 5.08896 15.1804C4.9815 15.1804 4.89425 15.1176 4.89425 15.0397C4.89425 14.9617 4.98123 14.8989 5.08896 14.8989C5.19668 14.8989 5.28339 14.9617 5.28339 15.0397ZM5.61285 15.4786C5.61285 15.5561 5.52587 15.6191 5.41828 15.6191C5.31069 15.6191 5.22358 15.5562 5.22358 15.4786C5.22358 15.4009 5.31083 15.3378 5.41828 15.3378C5.52574 15.3378 5.61285 15.4007 5.61285 15.4786ZM6.06207 15.8533C6.06207 15.931 5.97509 15.994 5.86737 15.994C5.75965 15.994 5.67293 15.9312 5.67293 15.8533C5.67293 15.7753 5.75992 15.7128 5.86737 15.7128C5.97483 15.7128 6.06207 15.7756 6.06207 15.8533Z" fill="#C5E6DA"/>
<path d="M6.69006 16.1034C6.69006 16.1809 6.60307 16.2439 6.49549 16.2439C6.3879 16.2439 6.30078 16.1811 6.30078 16.1034C6.30078 16.0258 6.38776 15.9626 6.49549 15.9626C6.60321 15.9626 6.69006 16.0255 6.69006 16.1034Z" fill="#C5E6DA"/>
<path d="M7.31896 16.1034C7.31896 16.1809 7.23198 16.2439 7.12439 16.2439C7.0168 16.2439 6.92969 16.1811 6.92969 16.1034C6.92969 16.0258 7.01667 15.9626 7.12439 15.9626C7.23211 15.9626 7.31896 16.0255 7.31896 16.1034Z" fill="#C5E6DA"/>
<path d="M7.95177 15.9946C7.95177 16.0724 7.86479 16.1354 7.7572 16.1354C7.64962 16.1354 7.5625 16.0725 7.5625 15.9946C7.5625 15.9167 7.64948 15.8538 7.7572 15.8538C7.86493 15.8538 7.95177 15.9167 7.95177 15.9946Z" fill="#C5E6DA"/>
</g>
<defs>
<clipPath id="clip0_917_464">
<rect width="24" height="25.1163" fill="white" transform="translate(0 0.418579)"/>
</clipPath>
</defs>
</svg>
