<svg width="17" height="18" viewBox="0 0 17 18" fill="none" xmlns="http://www.w3.org/2000/svg">
<g clip-path="url(#clip0_917_454)">
<path d="M16.9916 8.91326C16.9916 8.19633 16.9347 7.67316 16.8116 7.13062H8.80469V10.3665H13.5045C13.4098 11.1706 12.8981 12.3817 11.761 13.1955L11.7451 13.3038L14.2767 15.3091L14.4521 15.327C16.0629 13.8059 16.9916 11.5679 16.9916 8.91326Z" fill="#4285F4"/>
<path d="M8.80197 17.4391C11.1045 17.4391 13.0375 16.664 14.4494 15.327L11.7583 13.1955C11.0382 13.709 10.0717 14.0675 8.80197 14.0675C6.5468 14.0675 4.63275 12.5465 3.95045 10.4441L3.85043 10.4528L1.21802 12.5358L1.18359 12.6336C2.58596 15.482 5.46654 17.4391 8.80197 17.4391Z" fill="#34A853"/>
<path d="M3.94992 10.4441C3.76989 9.90161 3.6657 9.32026 3.6657 8.71961C3.6657 8.1189 3.76989 7.53762 3.94045 6.99507L3.93568 6.87953L1.27028 4.76306L1.18307 4.80547C0.605086 5.98747 0.273438 7.3148 0.273438 8.71961C0.273438 10.1244 0.605086 11.4517 1.18307 12.6337L3.94992 10.4441Z" fill="#FBBC05"/>
<path d="M8.80198 3.37153C10.4033 3.37153 11.4835 4.07877 12.0995 4.6698L14.5062 2.26708C13.0281 0.862267 11.1045 0 8.80198 0C5.46655 0 2.58596 1.95703 1.18359 4.80539L3.94098 6.99499C4.63276 4.89262 6.54681 3.37153 8.80198 3.37153Z" fill="#EB4335"/>
</g>
<defs>
<clipPath id="clip0_917_454">
<rect width="16.7246" height="17.4992" fill="white" transform="translate(0.273438)"/>
</clipPath>
</defs>
</svg>
