<svg width="24" height="23" viewBox="0 0 24 23" fill="none" xmlns="http://www.w3.org/2000/svg">
<g clip-path="url(#clip0_917_446)">
<path d="M21.75 0.529256H2.25C1.80756 0.52502 1.3814 0.6861 1.06504 0.977151C0.74867 1.2682 0.56794 1.66545 0.5625 2.08173V20.5033C0.568923 20.919 0.750087 21.3153 1.06634 21.6056C1.3826 21.8959 1.8082 22.0565 2.25 22.0522H21.75C22.1925 22.0555 22.6183 21.8939 22.9345 21.6027C23.2507 21.3114 23.4316 20.9143 23.4375 20.498V2.07644C23.4296 1.66138 23.2479 1.26602 22.9319 0.976309C22.6159 0.686594 22.1912 0.525936 21.75 0.529256Z" fill="#0076B2"/>
<path d="M3.94969 8.59683H7.34531V18.8767H3.94969V8.59683ZM5.64844 3.48071C6.0379 3.48071 6.41861 3.5894 6.74241 3.79302C7.06621 3.99664 7.31855 4.28605 7.4675 4.62463C7.61646 4.96321 7.65534 5.33576 7.57922 5.69513C7.5031 6.05451 7.31541 6.38457 7.03989 6.64356C6.76437 6.90255 6.4134 7.07884 6.03137 7.15011C5.64935 7.22139 5.25344 7.18445 4.89373 7.04398C4.53402 6.9035 4.22667 6.6658 4.01057 6.36095C3.79447 6.05609 3.67932 5.69778 3.67969 5.33134C3.68019 4.84036 3.88783 4.36965 4.25698 4.02264C4.62614 3.67563 5.12662 3.48071 5.64844 3.48071ZM9.47531 8.59683H12.7303V10.0082H12.7753C13.2291 9.20018 14.3353 8.34808 15.9872 8.34808C19.4259 8.34103 20.0634 10.4704 20.0634 13.2313V18.8767H16.6678V13.8753C16.6678 12.6844 16.6453 11.1514 14.9034 11.1514C13.1616 11.1514 12.8653 12.4498 12.8653 13.7976V18.8767H9.47531V8.59683Z" fill="white"/>
</g>
<defs>
<clipPath id="clip0_917_446">
<rect width="24" height="22.5815" fill="white"/>
</clipPath>
</defs>
</svg>
